HIERARCHY
ROOT Hips
{
  OFFSET 0 0 0
  CHANNELS 6 Xposition Yposition Zposition Zrotation Yrotation Xrotation
  JOINT LeftThigh
  {
    OFFSET 8.409438 0 -5.917753
    CHANNELS 3 Zrotation Yrotation Xrotation
    JOINT LeftLeg
    {
      OFFSET 0 0 -42.358652
      CHANNELS 3 Zrotation Yrotation Xrotation
      JOINT LeftFoot
      {
        OFFSET 0 0 -39.357303
        CHANNELS 3 Zrotation Yrotation Xrotation
      }
    }
  }
  JOINT RightThigh
  {
    OFFSET -8.409438 0 -5.917753
    CHANNELS 3 Zrotation Yrotation Xrotation
    JOINT RightLeg
    {
      OFFSET 0 0 -42.358652
      CHANNELS 3 Zrotation Yrotation Xrotation
      JOINT RightFoot
      {
        OFFSET 0 0 -39.357303
        CHANNELS 3 Zrotation Yrotation Xrotation
      }
    }
  }
  JOINT SpineLow
  {
    OFFSET 0 0 4.719101
    CHANNELS 3 Zrotation Yrotation Xrotation
    JOINT SpineMid
    {
      OFFSET 0 0 12.899191
      CHANNELS 3 Zrotation Yrotation Xrotation
      JOINT Chest
      {
        OFFSET 0 0 12.899191
        CHANNELS 3 Zrotation Yrotation Xrotation
        JOINT LeftShoulder
        {
          OFFSET 7.550562 1.41573 9.438202
          CHANNELS 3 Zrotation Yrotation Xrotation
          JOINT LeftArm
          {
            OFFSET 9.155056 0 4.247191
            CHANNELS 3 Zrotation Yrotation Xrotation
            JOINT LeftForearm
            {
              OFFSET 0 0 25.771955
              CHANNELS 3 Zrotation Yrotation Xrotation
              JOINT LeftHand
              {
                OFFSET 0 0 25.197169
                CHANNELS 3 Zrotation Yrotation Xrotation
              }
            }
          }
        }
        JOINT RightShoulder
        {
          OFFSET -7.550562 1.41573 9.438202
          CHANNELS 3 Zrotation Yrotation Xrotation
          JOINT RightArm
          {
            OFFSET -9.155056 0 4.247191
            CHANNELS 3 Zrotation Yrotation Xrotation
            JOINT RightForearm
            {
              OFFSET 0 0 -25.771955
              CHANNELS 3 Zrotation Yrotation Xrotation
              JOINT RightHand
              {
                OFFSET 0 0 -25.197169
                CHANNELS 3 Zrotation Yrotation Xrotation
              }
            }
          }
        }
        JOINT Neck
        {
          OFFSET 0 0 15.101124
          CHANNELS 3 Zrotation Yrotation Xrotation
          JOINT Head
          {
            OFFSET 0 0 11.325843
            CHANNELS 3 Zrotation Yrotation Xrotation
            End Site
            {
              OFFSET 0 0 14.157303
            }
          }
        }
      }
    }
  }
}
MOTION
Frames: 8
Frame Time: 0.0
0.0  101.685394  0.0  2.140321  34.675121  -97.325771  -5.711991  -16.948596  -4.462686  -9.396216  17.199774  25.916741  0.820641  3.672081  2.774671  -24.05338  17.213599  2.253548  -10.351668  4.742558  17.08497  -6.266869  2.130245  -1.716915  -1.362125  1.10557  2.71625  -3.59622  3.169428  7.364771  -3.59622  3.169428  7.364771  -18.828928  22.12132  5.761075  96.319724  61.42319  161.647524  -38.915945  -25.060016  62.015642  66.63238  -9.29678  -3.343207  21.01774  -18.008157  10.992413  91.616646  47.15644  67.148052  9.782695  26.044685  -32.012266  107.550523  20.637028  9.630672  -8.737797  -4.863562  0.584208  -6.544755  -3.656906  0.36829  
0.0  101.685394  0.0  2.155208  35.25328  -97.343388  -5.927201  -17.05167  -4.610489  -9.464783  17.394284  25.964338  0.684243  3.664869  2.746523  -24.479991  17.265272  2.203642  -10.263219  4.739326  17.16556  -6.398999  2.178791  -1.72667  -1.303161  1.096779  2.75084  -3.434414  3.140662  7.462661  -3.434414  3.140662  7.462661  -18.951971  21.851935  5.321895  94.243516  60.880191  161.611704  -39.147844  -25.310008  61.913375  66.571899  -9.138206  -4.518637  21.986046  -17.802747  10.719714  92.131077  47.124119  67.689618  10.852593  24.140854  -30.095185  107.553107  19.921328  10.299151  -9.19709  -4.908685  0.530003  -6.889331  -3.690475  0.323305  
0.0  101.685394  0.0  2.188965  35.917812  -97.306623  -6.242244  -17.095038  -4.805088  -9.469917  17.547734  26.068317  0.516171  3.653603  2.696683  -24.638302  17.257396  2.270088  -10.506147  4.799139  17.197925  -6.545346  2.209252  -1.742623  -1.243995  1.084672  2.793069  -3.272097  3.10302  7.581541  -3.272097  3.103019  7.581541  -19.065924  21.674146  4.887871  92.746325  60.309072  161.604826  -39.370356  -25.231703  62.348935  66.387649  -8.9979  -5.45583  22.518358  -17.599498  10.419561  92.512131  47.167742  68.046343  11.349626  22.363708  -28.716028  107.453788  19.416702  10.866933  -9.673653  -5.012043  0.396572  -7.247348  -3.766423  0.217779  
0.0  101.685394  0.0  2.15107  36.517864  -97.355523  -6.381519  -17.216242  -4.915993  -9.751889  17.74707  26.013569  0.407599  3.651648  2.666692  -24.814852  17.21208  2.337094  -10.746095  4.887087  17.261832  -6.678807  2.240408  -1.757673  -1.217073  1.075116  2.841689  -3.197304  3.07616  7.716191  -3.197303  3.07616  7.716191  -19.05567  21.46555  4.47329  91.190532  59.712717  161.511369  -39.87711  -25.039959  62.727568  66.073105  -8.840587  -6.115773  22.94045  -17.47107  10.174738  92.55219  47.577319  68.116394  11.695763  20.928718  -27.831743  107.377622  19.066839  11.264141  -10.162352  -5.16104  0.201446  -7.614896  -3.875395  0.064964  
0.0  101.685394  0.0  2.121856  37.177304  -97.355227  -6.608664  -17.279042  -5.122904  -9.913482  17.901382  26.098813  0.286362  3.64207  2.621245  -24.793325  17.114058  2.47602  -11.185866  5.012145  17.304915  -6.743255  2.257601  -1.775083  -1.208437  1.050154  2.872507  -3.175116  3.008487  7.801902  -3.175116  3.008487  7.801902  -19.106387  21.444856  4.123434  89.78327  59.131791  161.305944  -40.48624  -24.657091  63.204151  65.642333  -8.714976  -6.568117  23.006706  -17.347983  10.072755  92.150818  48.466702  67.844783  12.231525  19.975604  -27.289238  107.435186  18.979995  11.442141  -10.478676  -5.274447  0.059297  -7.85293  -3.958228  -0.046252  
0.0  101.685394  0.0  2.02901  37.776642  -97.388598  -6.764113  -17.356322  -5.364259  -10.230352  18.080458  26.123201  0.28274  3.641459  2.635106  -24.708218  16.980692  2.620931  -11.772974  5.161063  17.337807  -6.713257  2.285387  -1.78127  -1.224574  1.031041  2.87773  -3.221145  2.95848  7.816226  -3.221145  2.95848  7.816227  -19.060511  21.445155  3.98867  88.398384  58.624978  161.003933  -41.208167  -24.177892  63.581666  65.22081  -8.596152  -6.937021  22.991492  -17.373689  10.12974  91.296252  49.732347  67.17065  13.004483  19.496889  -27.041417  107.454485  19.154177  11.374948  -10.771868  -5.40818  -0.005641  -8.072937  -4.057526  -0.099856  
0.0  101.685394  0.0  1.946683  38.414819  -97.331903  -6.88907  -17.435333  -5.65671  -10.529202  18.207956  26.172059  0.206127  3.633186  2.602003  -24.643653  16.776113  2.684173  -12.196012  5.298368  17.414843  -6.799683  2.3004  -1.793155  -1.266502  1.00443  2.858291  -3.339591  2.88985  7.762302  -3.339591  2.88985  7.762302  -19.133257  21.54518  3.903346  87.46295  58.209924  160.791427  -41.820446  -23.597292  63.982318  64.973376  -8.498393  -7.362952  22.762376  -17.363195  10.267357  90.362706  50.998675  66.260679  13.707181  19.260602  -27.044488  107.431693  19.495494  11.135985  -10.932194  -5.492856  -0.00481  -8.192892  -4.121115  -0.102186  
0.0  101.685394  0.0  1.966705  39.251255  -97.135858  -7.296635  -17.347528  -6.119106  -10.775915  18.318927  26.304434  0.22375  3.619324  2.595508  -24.748181  16.68349  2.656675  -12.71355  5.404995  17.485185  -6.848707  2.312436  -1.798827  -1.384659  1.012164  2.828861  -3.662719  2.923142  7.676108  -3.662719  2.923142  7.676108  -19.085216  21.526014  3.88319  86.843693  57.890919  160.723331  -42.211405  -23.132568  64.29073  64.879889  -8.406346  -7.93529  22.6737  -17.450919  10.298512  89.734646  51.931164  65.454014  14.068374  19.088642  -27.21729  107.560758  19.832571  10.848222  -10.963691  -5.624183  0.025872  -8.21591  -4.220207  -0.081845  
